# AST/ASF file generated using VICON BodyLanguage
# -----------------------------------------------
:version 1.10
:name VICON
:units
  mass 1.0
  length 0.45
  angle deg
:documentation
   .ast/.asf automatically generated from VICON data using
   VICON BodyBuilder and BodyLanguage model FoxedUp or BRILLIANT.MOD
:root
   order TX TY TZ RX RY RZ
   axis XYZ
   position 0 0 0  
   orientation 0 0 0 
:bonedata
  begin
     id 1 
     name lhipjoint
     direction 0.610259 -0.730986 0.305356 
     length 2.50941 
     axis 0 0 0  XYZ
  end
  begin
     id 2 
     name lfemur
     direction 0.34202 -0.939693 0  
     length 7.48822  
     axis 0 0 20  XYZ
    dof rx ry rz
    limits (-160.0 20.0)
           (-70.0 70.0)
           (-60.0 70.0)
  end
  begin
     id 3 
     name ltibia
     direction 0.34202 -0.939693 0   
     length 7.60141   
     axis 0 0 20   XYZ
    dof rx
    limits (-10.0 170.0)
  end
  begin
     id 4 
     name lfoot
     direction 0.0673488 -0.185039 0.980421   
     length 2.04049   
     axis -90 7.62852e-016 20   XYZ
    dof rx rz
    limits (-45.0 90.0)
           (-70.0 20.0)
  end
  begin
     id 5 
     name ltoes
     direction 1.5356e-011 -4.21729e-011 1   
     length 1.02897   
     axis -90 7.62852e-016 20   XYZ
    dof rx
    limits (-90.0 20.0)
  end
  begin
     id 6 
     name rhipjoint
     direction -0.57612 -0.754205 0.315056   
     length 2.43216  
     axis 0 0 0  XYZ 
  end
  begin
     id 7 
     name rfemur
     direction -0.34202 -0.939693 0   
     length 7.42799   
     axis 0 0 -20   XYZ
    dof rx ry rz
    limits (-160.0 20.0)
           (-70.0 70.0)
           (-70.0 60.0)
  end
  begin
     id 8 
     name rtibia
     direction -0.34202 -0.939693 0   
     length 7.69484   
     axis 0 0 -20   XYZ
    dof rx
    limits (-10.0 170.0)
 end
 begin
     id 9 
     name rfoot
     direction -0.111837 -0.30727 0.945028   
     length 2.15769  
     axis -90 -7.62852e-016 -20   XYZ
    dof rx rz
    limits (-45.0 90.0)
           (-20.0 70.0)
  end
  begin
     id 10 
     name rtoes
     direction -1.53539e-011 -4.21878e-011 1   
     length 1.07391   
     axis -90 -7.62852e-016 -20   XYZ
    dof rx
    limits (-90.0 20.0)
  end
  begin
     id 11 
     name lowerback
     direction 0.00552624 0.990109 -0.140195   
     length 2.12403   
     axis 0 0 0   XYZ
    dof rx ry rz
    limits (-20.0 45.0)
           (-30.0 30.0)
           (-30.0 30.0)
  end
  begin
     id 12 
     name upperback
     direction 0.00361898 0.999976 -0.00584723   
     length 2.13232   
     axis 0 0 0   XYZ
    dof rx ry rz
    limits (-20.0 45.0)
           (-30.0 30.0)
           (-30.0 30.0)
  end
  begin
     id 13 
     name thorax
     direction -0.000331275 0.998253 0.0590847   
     length 2.17688   
     axis 0 0 0   XYZ
    dof rx ry rz
    limits (-20.0 45.0)
           (-30.0 30.0)
           (-30.0 30.0)
  end
  begin
     id 14 
     name lowerneck
     direction -0.0561561 0.979832 0.19177   
     length 1.64159   
     axis 0 0 0   XYZ
    dof rx ry rz
    limits (-20.0 45.0)
           (-30.0 30.0)
           (-30.0 30.0)
  end
  begin
     id 15 
     name upperneck
     direction 0.0827153 0.979385 -0.184293   
     length 1.68939   
     axis 0 0 0   XYZ
    dof rx ry rz
    limits (-20.0 45.0)
           (-30.0 30.0)
           (-30.0 30.0)
  end
  begin
     id 16
     name head
     direction 0.0278583 0.995936 -0.0856488  
     length 1.70207  
     axis 0 0 0   XYZ
    dof rx ry rz
    limits (-20.0 45.0)
           (-30.0 30.0)
           (-30.0 30.0)
  end
  begin
     id 17 
     name lclavicle
     direction 0.950993 0.301131 -0.0702275  
     length 3.41652  
     axis 0 0 0   XYZ
    dof ry rz
    limits (-20.0 10.0)
           (0.0 20.0)
  end
  begin
     id 18 
     name lhumerus
     direction 1 -4.48981e-011 -3.9662e-029   
     length 5.32955   
     axis 180 -30 -90   XYZ
    dof rx ry rz
    limits (-60.0 90.0)
           (-90.0 90.0)
           (-90.0 90.0)
  end
  begin
     id 19
     name lradius
     direction 1 -4.48925e-011 -9.0549e-027   
     length 3.69232   
     axis 180 -30 -90   XYZ
    dof rx
    limits (-10.0 170.0)
  end
  begin
     id 20
     name lwrist
     direction 1 -4.49007e-011 -1.49005e-026   
     length 1.84616   
     axis 9.0955e-015 90 90   XYZ
    dof ry
    limits (-180.0 0.0)
 end
  begin
     id 21 
     name lhand
     direction 1 -4.49016e-011 -2.98023e-026   
     length 0.536598   
     axis 1.90115e-014 90 90   XYZ
    dof rx rz
    limits (-90.0 90.0)
           (-45.0 45.0)
  end
  begin
     id 22 
     name lfingers
     direction 1 -4.48924e-011 -5.9578e-026   
     length 0.432619   
     axis 3.80223e-014 90 90   XYZ
    dof rx
    limits (0.0 90.0)
  end
  begin
     id 23
     name lthumb
     direction 0.707107 -6.34947e-011 0.707107   
     length 0.621157   
     axis -90 45 -3.84942e-014   XYZ
    dof rx rz
    limits (-45.0 45.0)
           (-45.0 45.0)
  end
  begin
     id 24 
     name rclavicle
     direction -0.955495 0.276497 -0.102848   
     length 3.36357  
     axis 0 0 0   XYZ 
    dof ry rz
    limits (-10.0 20.0)
           (-20.0 0.0)
  end
  begin
     id 25 
     name rhumerus
     direction -1 -4.48961e-011 3.30983e-027  
     length 5.23431   
     axis 180 30 90   XYZ
    dof rx ry rz
    limits (-90.0 60.0)
           (-90.0 90.0)
           (-90.0 90.0)
  end
  begin
     id 26 
     name rradius
     direction -1 -4.48965e-011 -6.63263e-027   
     length 3.55301   
     axis 180 30 90   XYZ
    dof rx
    limits (-10.0 170.0)
  end
  begin
     id 27 
     name rwrist
     direction -1 -4.48942e-011 -1.48958e-026   
     length 1.77651   
     axis 9.0955e-015 -90 -90   XYZ
    dof ry
    limits (-180.0 0.0)
  end
  begin
     id 28
     name rhand
     direction -1 -4.48977e-011 -2.97966e-026   
     length 0.772522   
     axis 1.90115e-014 -90 -90   XYZ
    dof rx rz
    limits (-90.0 90.0)
           (-45.0 45.0)
  end
  begin
     id 29
     name rfingers
     direction -1 -4.49135e-011 -5.96389e-026   
     length 0.622827   
     axis 3.80223e-014 -90 -90   XYZ
    dof rx
    limits (0.0 90.0)
  end
  begin
     id 30
     name rthumb
     direction -0.707107 -6.34969e-011 0.707107   
     length 0.894259   
     axis -90 -45 3.84942e-014   XYZ
    dof rx rz
    limits (-45.0 45.0)
           (-45.0 45.0)
  end
:hierarchy
  begin
    root lhipjoint rhipjoint lowerback
    lhipjoint lfemur
    lfemur ltibia
    ltibia lfoot
    lfoot ltoes
    rhipjoint rfemur
    rfemur rtibia
    rtibia rfoot
    rfoot rtoes
    lowerback upperback
    upperback thorax
    thorax lowerneck lclavicle rclavicle
    lowerneck upperneck
    upperneck head
    lclavicle lhumerus
    lhumerus lradius
    lradius lwrist
    lwrist lhand lthumb
    lhand lfingers
    rclavicle rhumerus
    rhumerus rradius
    rradius rwrist
    rwrist rhand rthumb
    rhand rfingers
  end

#!OML:ASF F:\VICON\USERDATA\INSTALL\rory3\rory3.ASF
:FULLY-SPECIFIED
:DEGREES
564
root -14.8112 17.7558 17.3487 181.315 41.3667 -540.438
lowerback 9.81644 1.57859 -1.70078
upperback -0.105628 1.92384 -0.154079
thorax -5.67099 1.00389 0.51461
lowerneck -19.3497 -4.02272 -11.0875
upperneck 36.0322 -1.50345 4.22808
head 16.3832 -0.915634 3.69955
rclavicle -3.76883e-014 5.96354e-016
rhumerus -37.5917 -6.23603 -83.8963
rradius 36.9208
rwrist 0.686831
rhand -16.4341 10.3902
rfingers 7.12502
rthumb 9.78134 -19.3627
lclavicle -3.76883e-014 5.96354e-016
lhumerus -37.2674 11.4853 76.9632
lradius 32.7535
lwrist -3.48437
lhand -17.7448 23.4419
lfingers 7.12502
lthumb 8.51659 53.2501
rfemur -8.10424 -0.779584 21.1678
rtibia 32.2928
rfoot -22.1448 -6.76651
rtoes -0.332664
lfemur -10.3959 1.07813 -23.8304
ltibia 26.6036
lfoot -13.7344 0.871038
ltoes -0.161782
565
root -14.7938 17.7528 17.356 181.201 40.428 -540.611
lowerback 9.78631 1.58738 -1.81047
upperback -0.0282745 1.92304 -0.227258
thorax -5.57377 1.00584 0.502112
lowerneck -19.5413 -4.04745 -10.9909
upperneck 36.235 -1.49556 4.18478
head 16.5319 -0.900001 3.67871
rclavicle -1.57282e-013 5.56597e-015
rhumerus -37.4265 -6.22261 -84.3202
rradius 36.9916
rwrist 1.22456
rhand -16.0416 10.623
rfingers 7.12502
rthumb 10.1601 -19.1117
lclavicle -1.57282e-013 5.56597e-015
lhumerus -37.2269 10.9207 77.3084
lradius 33.1764
lwrist -3.62574
lhand -17.1655 23.1824
lfingers 7.12502
lthumb 9.07569 52.9671
rfemur -8.08973 0.663524 21.09
rtibia 32.0136
rfoot -22.9279 -4.36233
rtoes -0.784397
lfemur -10.4714 0.738977 -23.8986
ltibia 26.6807
lfoot -13.768 0.306152
ltoes -0.0494605
566
root -14.7719 17.7549 17.3655 181.101 39.4836 -540.696
lowerback 9.73893 1.54534 -1.92672
upperback 0.108076 1.85971 -0.243258
thorax -5.40551 0.977679 0.563564
lowerneck -19.6887 -3.97803 -10.9257
upperneck 36.2418 -1.36238 4.12657
head 16.5551 -0.841544 3.66931
rclavicle 6.72948e-014 -3.97569e-016
rhumerus -37.2664 -5.81985 -84.8797
rradius 37.2898
rwrist 1.42428
rhand -15.6981 10.4818
rfingers 7.12502
rthumb 10.4914 -19.2364
lclavicle 6.72948e-014 -3.97569e-016
lhumerus -37.1343 10.8403 77.4856
lradius 33.444
lwrist -4.1062
lhand -16.2062 23.7564
lfingers 7.12502
lthumb 10.0012 53.4987
rfemur -8.02544 2.03207 21.129
rtibia 31.7655
rfoot -23.3686 -2.49064
rtoes -1.77895
lfemur -10.4962 0.465571 -23.8676
ltibia 26.7659
lfoot -13.8504 -0.233293
ltoes 0.128862
567
root -14.7501 17.7577 17.3776 181.217 38.4873 -540.636
lowerback 9.66568 1.49473 -1.96285
upperback 0.157135 1.79254 -0.232886
thorax -5.3125 0.945449 0.607108
lowerneck -19.7343 -3.95197 -10.8562
upperneck 36.2258 -1.3129 4.07912
head 16.5508 -0.813774 3.64623
rclavicle 7.17985e-014 -2.38542e-015
rhumerus -37.213 -5.41777 -85.4436
rradius 37.6029
rwrist 1.76707
rhand -15.6457 10.3639
rfingers 7.12502
rthumb 10.542 -19.3518
lclavicle 7.17985e-014 -2.38542e-015
lhumerus -37.1367 10.6649 77.6655
lradius 33.7455
lwrist -4.35203
lhand -16.0429 22.009
lfingers 7.12502
lthumb 10.1588 51.7438
rfemur -8.12447 3.07337 21.3007
rtibia 31.557
rfoot -23.6642 -1.23102
rtoes -3.19868
lfemur -10.6814 0.419783 -23.6857
ltibia 26.8375
lfoot -13.9091 -1.02658
ltoes 0.306313
568
root -14.7304 17.7541 17.3916 181.352 37.4469 -540.634
lowerback 9.62274 1.45119 -2.03696
upperback 0.145591 1.72729 -0.231089
thorax -5.301 0.915205 0.660822
lowerneck -19.6331 -3.97174 -10.8864
upperneck 36.1757 -1.34713 4.1286
head 16.5051 -0.817671 3.66574
rclavicle 3.12216e-014 7.35503e-015
rhumerus -37.1579 -5.13743 -85.9181
rradius 37.8056
rwrist 2.22905
rhand -15.6115 10.5047
rfingers 7.12502
rthumb 10.575 -19.2092
lclavicle 3.12216e-014 7.35503e-015
lhumerus -37.1835 10.2832 77.934
lradius 34.0517
lwrist -4.31713
lhand -16.3256 21.0341
lfingers 7.12502
lthumb 9.88607 50.782
rfemur -8.31699 3.83187 21.4008
rtibia 31.4139
rfoot -23.8774 -0.290843
rtoes -3.58532
lfemur -10.9216 0.44267 -23.5626
ltibia 26.855
lfoot -13.9269 -1.83707
ltoes -0.476332
569
root -14.7101 17.7517 17.4054 181.298 36.421 -540.789
lowerback 9.65358 1.40221 -2.25047
upperback 0.159182 1.63889 -0.234926
thorax -5.3076 0.877562 0.788779
lowerneck -19.5089 -3.96661 -10.962
upperneck 36.1424 -1.32314 4.17959
head 16.4576 -0.802474 3.70612
rclavicle 4.27139e-014 8.24956e-015
rhumerus -37.1503 -4.81203 -86.3314
rradius 38.0921
rwrist 2.54679
rhand -15.3744 10.6432
rfingers 7.12502
rthumb 10.8036 -19.0589
lclavicle 4.27139e-014 8.24956e-015
lhumerus -37.1769 10.0093 78.2128
lradius 34.2501
lwrist -4.34824
lhand -16.886 23.6024
lfingers 7.12502
lthumb 9.34538 53.3753
rfemur -8.40798 4.57119 21.3939
rtibia 31.3146
rfoot -23.8113 0.249351
rtoes -3.72553
lfemur -11.0523 0.118986 -23.5947
ltibia 26.8772
lfoot -13.8901 -2.30997
ltoes -0.584637
570
root -14.6893 17.7551 17.4111 181.217 35.3854 -540.962
lowerback 9.62001 1.32195 -2.39606
upperback 0.177758 1.51742 -0.252351
thorax -5.26871 0.821262 0.87074
lowerneck -19.4248 -3.97012 -11.0499
upperneck 36.1857 -1.28296 4.2083
head 16.4584 -0.785275 3.74636
rclavicle 5.52683e-014 6.16232e-015
rhumerus -37.2041 -4.25367 -86.78
rradius 38.4459
rwrist 2.50251
rhand -15.1892 10.691
rfingers 7.12502
rthumb 10.9823 -19.0017
lclavicle 5.52683e-014 6.16232e-015
lhumerus -37.2112 9.94466 78.4049
lradius 34.3404
lwrist -4.65042
lhand -19.1605 24.5889
lfingers 7.12502
lthumb 7.15023 54.4481
rfemur -8.47411 5.07531 21.3458
rtibia 31.2685
rfoot -23.4652 0.695466
rtoes -2.89763
lfemur -11.1088 -0.415398 -23.6788
ltibia 26.9062
lfoot -13.9609 -2.61074
ltoes -0.402534
571
root -14.6704 17.7546 17.4147 181.255 34.2864 -540.922
lowerback 9.60155 1.23468 -2.28773
upperback 0.252575 1.41585 -0.287705
thorax -5.17264 0.767906 0.788764
lowerneck -19.5684 -4.01631 -11.0344
upperneck 36.2453 -1.35178 4.2761
head 16.5317 -0.799298 3.76623
rclavicle -6.46299e-014 1.09332e-014
rhumerus -37.1032 -3.99326 -87.2069
rradius 38.7131
rwrist 2.51743
rhand -14.9077 11.0558
rfingers 7.12502
rthumb 11.2538 -18.6223
lclavicle -6.46299e-014 1.09332e-014
lhumerus -37.0723 9.67378 78.6134
lradius 34.4621
lwrist -4.81698
lhand -21.6431 23.0479
lfingers 7.12502
lthumb 4.75344 52.9745
rfemur -8.52194 5.10954 21.4612
rtibia 31.2762
rfoot -22.9274 1.13852
rtoes -0.772639
lfemur -11.1811 -0.581431 -23.5751
ltibia 26.9193
lfoot -14.1298 -3.30058
ltoes -1.07146
572
root -14.6552 17.7489 17.422 181.336 33.1348 -540.838
lowerback 9.50392 1.14736 -2.04337
upperback 0.462585 1.33449 -0.381179
thorax -4.88715 0.720586 0.570065
lowerneck -19.9177 -4.08361 -10.9073
upperneck 36.2611 -1.50254 4.35895
head 16.6378 -0.835981 3.7547
rclavicle -6.07163e-014 -6.06293e-015
rhumerus -36.6938 -3.99736 -87.6737
rradius 38.8827
rwrist 2.76004
rhand -14.5848 11.9828
rfingers 7.12502
rthumb 11.5652 -17.6781
lclavicle -6.07163e-014 -6.06293e-015
lhumerus -36.5817 9.15334 78.8573
lradius 34.5728
lwrist -4.95162
lhand -21.8766 22.2846
lfingers 7.12502
lthumb 4.52793 52.2163
rfemur -8.54674 4.87526 21.6306
rtibia 31.3034
rfoot -22.2542 1.06272
rtoes 1.71432
lfemur -11.3291 -0.547253 -23.4214
ltibia 26.9567
lfoot -14.2389 -4.23894
ltoes -1.79172
573
root -14.6399 17.7434 17.4274 181.302 31.9981 -540.916
lowerback 9.62715 1.03099 -2.02295
upperback 0.446603 1.17776 -0.420874
thorax -4.96751 0.643509 0.536276
lowerneck -20.0238 -4.08528 -10.7477
upperneck 36.4611 -1.43851 4.1889
head 16.7583 -0.803964 3.67678
rclavicle -6.15611e-014 7.7526e-015
rhumerus -36.6999 -3.55824 -88.1566
rradius 39.1339
rwrist 2.94771
rhand -14.4796 12.835
rfingers 7.12502
rthumb 11.6666 -16.8202
lclavicle -6.15611e-014 7.7526e-015
lhumerus -36.57 8.80058 79.0306
lradius 34.6414
lwrist -5.40516
lhand -20.9135 21.9618
lfingers 7.12502
lthumb 5.45791 51.8715
rfemur -8.46582 4.50654 21.6501
rtibia 31.2891
rfoot -21.5668 0.361743
rtoes 2.79868
lfemur -11.4514 -0.578736 -23.4222
ltibia 27.0696
lfoot -14.3663 -5.15543
ltoes -1.87008
574
root -14.623 17.7405 17.4334 181.304 30.9467 -540.982
lowerback 9.69216 0.949169 -2.01668
upperback 0.391795 1.0653 -0.4437
thorax -5.05793 0.588293 0.522891
lowerneck -19.9948 -4.08628 -10.5777
upperneck 36.6355 -1.37028 3.97864
head 16.8324 -0.770782 3.57785
rclavicle 4.28381e-014 -1.12313e-014
rhumerus -36.8878 -2.89933 -88.6463
rradius 39.5842
rwrist 2.79482
rhand -14.6922 12.8707
rfingers 7.12502
rthumb 11.4616 -16.796
lclavicle 4.28381e-014 -1.12313e-014
lhumerus -36.6257 8.46439 79.2475
lradius 34.4716
lwrist -5.75261
lhand -20.6945 22.3908
lfingers 7.12502
lthumb 5.66929 52.295
rfemur -8.35592 3.93388 21.6613
rtibia 31.2021
rfoot -21.1596 -0.503806
rtoes 2.4733
lfemur -11.5993 -0.79152 -23.4006
ltibia 27.2254
lfoot -14.522 -5.85655
ltoes -1.61544
575
root -14.6057 17.7384 17.4395 181.403 29.9736 -540.914
lowerback 9.64639 0.911794 -1.89432
upperback 0.395417 1.03118 -0.421143
thorax -5.02579 0.568529 0.483145
lowerneck -19.8643 -4.11527 -10.634
upperneck 36.6408 -1.38514 4.00177
head 16.8072 -0.771373 3.59753
rclavicle 2.89977e-014 -2.78299e-015
rhumerus -36.9765 -2.40995 -88.9974
rradius 39.9493
rwrist 2.66259
rhand -15.0865 12.5777
rfingers 7.12502
rthumb 11.0814 -17.1098
lclavicle 2.89977e-014 -2.78299e-015
lhumerus -36.5283 8.19817 79.5503
lradius 34.1877
lwrist -5.96794
lhand -20.2333 24.1668
lfingers 7.12502
lthumb 6.11454 54.0586
rfemur -8.23868 3.0869 21.7924
rtibia 31.047
rfoot -21.0168 -1.08857
rtoes 0.905931
lfemur -11.7785 -1.02233 -23.2464
ltibia 27.36
lfoot -14.5946 -6.42967
ltoes -1.29231
